<svg width="18" height="21" viewBox="0 0 18 21" fill="none" xmlns="http://www.w3.org/2000/svg">
<path d="M10.6904 16.1071L6.40472 11.1071C6.26187 10.9405 6.19044 10.7738 6.19044 10.5238C6.19044 10.2738 6.26187 10.1071 6.40472 9.94046L10.6904 4.94046C10.9762 4.60713 11.4047 4.60713 11.6904 4.94046C11.9762 5.27379 11.9762 5.77379 11.6904 6.10713L7.90472 10.5238L11.6904 14.9405C11.9762 15.2738 11.9762 15.7738 11.6904 16.1071C11.4047 16.4405 10.9762 16.4405 10.6904 16.1071Z" fill="black"/>
<mask id="mask0_1_240" style="mask-type:luminance" maskUnits="userSpaceOnUse" x="6" y="4" width="6" height="13">
<path d="M10.6904 16.1071L6.40472 11.1071C6.26187 10.9405 6.19044 10.7738 6.19044 10.5238C6.19044 10.2738 6.26187 10.1071 6.40472 9.94046L10.6904 4.94046C10.9762 4.60713 11.4047 4.60713 11.6904 4.94046C11.9762 5.27379 11.9762 5.77379 11.6904 6.10713L7.90472 10.5238L11.6904 14.9405C11.9762 15.2738 11.9762 15.7738 11.6904 16.1071C11.4047 16.4405 10.9762 16.4405 10.6904 16.1071Z" fill="white"/>
</mask>
<g mask="url(#mask0_1_240)">
<rect x="17.619" y="0.523804" width="20" height="17.1429" transform="rotate(90 17.619 0.523804)" fill="white"/>
</g>
</svg>
