<svg width="28" height="28" viewBox="0 0 28 28" fill="none" xmlns="http://www.w3.org/2000/svg">
<path d="M25.078 9.07489V2.06169C25.078 1.70262 24.9353 1.35825 24.6814 1.10434C24.4275 0.850437 24.0831 0.707794 23.7241 0.707794C23.365 0.707794 23.0206 0.850437 22.7667 1.10434C22.5128 1.35825 22.3702 1.70262 22.3702 2.06169V9.07489C21.586 9.35949 20.9086 9.8786 20.4298 10.5617C19.951 11.2448 19.6942 12.0587 19.6942 12.8929C19.6942 13.727 19.951 14.541 20.4298 15.2241C20.9086 15.9072 21.586 16.4263 22.3702 16.7109V26.4319C22.3702 26.791 22.5128 27.1353 22.7667 27.3892C23.0206 27.6431 23.365 27.7858 23.7241 27.7858C24.0831 27.7858 24.4275 27.6431 24.6814 27.3892C24.9353 27.1353 25.078 26.791 25.078 26.4319V16.7109C25.8621 16.4263 26.5395 15.9072 27.0183 15.2241C27.4971 14.541 27.7539 13.727 27.7539 12.8929C27.7539 12.0587 27.4971 11.2448 27.0183 10.5617C26.5395 9.8786 25.8621 9.35949 25.078 9.07489ZM23.7241 14.2468C23.4563 14.2468 23.1945 14.1674 22.9719 14.0186C22.7492 13.8698 22.5757 13.6584 22.4732 13.411C22.3707 13.1636 22.3439 12.8914 22.3962 12.6288C22.4484 12.3661 22.5774 12.1249 22.7667 11.9355C22.9561 11.7462 23.1973 11.6172 23.4599 11.565C23.7226 11.5128 23.9948 11.5396 24.2422 11.642C24.4896 11.7445 24.701 11.9181 24.8498 12.1407C24.9986 12.3633 25.078 12.6251 25.078 12.8929C25.078 13.252 24.9353 13.5963 24.6814 13.8502C24.4275 14.1041 24.0831 14.2468 23.7241 14.2468ZM15.6007 17.1983V2.06169C15.6007 1.70262 15.458 1.35825 15.2041 1.10434C14.9502 0.850437 14.6058 0.707794 14.2468 0.707794C13.8877 0.707794 13.5433 0.850437 13.2894 1.10434C13.0355 1.35825 12.8929 1.70262 12.8929 2.06169V17.1983C12.1088 17.4829 11.4313 18.002 10.9525 18.6851C10.4738 19.3682 10.2169 20.1821 10.2169 21.0163C10.2169 21.8504 10.4738 22.6644 10.9525 23.3475C11.4313 24.0306 12.1088 24.5497 12.8929 24.8343V26.4319C12.8929 26.791 13.0355 27.1353 13.2894 27.3892C13.5433 27.6431 13.8877 27.7858 14.2468 27.7858C14.6058 27.7858 14.9502 27.6431 15.2041 27.3892C15.458 27.1353 15.6007 26.791 15.6007 26.4319V24.8343C16.3848 24.5497 17.0623 24.0306 17.541 23.3475C18.0198 22.6644 18.2766 21.8504 18.2766 21.0163C18.2766 20.1821 18.0198 19.3682 17.541 18.6851C17.0623 18.002 16.3848 17.4829 15.6007 17.1983ZM14.2468 22.3702C13.979 22.3702 13.7172 22.2908 13.4946 22.142C13.2719 21.9932 13.0984 21.7818 12.9959 21.5344C12.8935 21.287 12.8666 21.0148 12.9189 20.7521C12.9711 20.4895 13.1001 20.2483 13.2894 20.0589C13.4788 19.8696 13.72 19.7406 13.9826 19.6884C14.2453 19.6362 14.5175 19.663 14.7649 19.7654C15.0123 19.8679 15.2237 20.0414 15.3725 20.2641C15.5213 20.4867 15.6007 20.7485 15.6007 21.0163C15.6007 21.3754 15.458 21.7197 15.2041 21.9736C14.9502 22.2275 14.6058 22.3702 14.2468 22.3702ZM6.12337 6.36709V2.06169C6.12337 1.70262 5.98073 1.35825 5.72682 1.10434C5.47292 0.850437 5.12855 0.707794 4.76947 0.707794C4.4104 0.707794 4.06603 0.850437 3.81212 1.10434C3.55822 1.35825 3.41557 1.70262 3.41557 2.06169V6.36709C2.63146 6.65169 1.95399 7.17081 1.47522 7.8539C0.996458 8.53699 0.739624 9.35092 0.739624 10.1851C0.739624 11.0193 0.996458 11.8332 1.47522 12.5163C1.95399 13.1994 2.63146 13.7185 3.41557 14.0031V26.4319C3.41557 26.791 3.55822 27.1353 3.81212 27.3892C4.06603 27.6431 4.4104 27.7858 4.76947 27.7858C5.12855 27.7858 5.47292 27.6431 5.72682 27.3892C5.98073 27.1353 6.12337 26.791 6.12337 26.4319V14.0031C6.90749 13.7185 7.58496 13.1994 8.06372 12.5163C8.54249 11.8332 8.79932 11.0193 8.79932 10.1851C8.79932 9.35092 8.54249 8.53699 8.06372 7.8539C7.58496 7.17081 6.90749 6.65169 6.12337 6.36709ZM4.76947 11.539C4.5017 11.539 4.23993 11.4596 4.01729 11.3108C3.79464 11.162 3.62111 10.9506 3.51863 10.7032C3.41616 10.4558 3.38935 10.1836 3.44159 9.92095C3.49383 9.65832 3.62278 9.41708 3.81212 9.22774C4.00147 9.03839 4.24271 8.90944 4.50534 8.8572C4.76797 8.80496 5.04019 8.83177 5.28759 8.93425C5.53498 9.03672 5.74643 9.21025 5.8952 9.4329C6.04397 9.65555 6.12337 9.91731 6.12337 10.1851C6.12337 10.5442 5.98073 10.8885 5.72682 11.1424C5.47292 11.3963 5.12855 11.539 4.76947 11.539Z" fill="#303030" fill-opacity="0.35"/>
</svg>
