<svg width="41" height="41" viewBox="0 0 41 41" fill="none" xmlns="http://www.w3.org/2000/svg">
<path d="M18.0225 0.920103C19.4689 -0.208531 21.4976 -0.208532 22.944 0.920102L26.3358 3.56681C26.9068 4.01232 27.588 4.29448 28.3067 4.38317L32.5766 4.91006C34.3974 5.13474 35.8319 6.56927 36.0566 8.39008L36.5835 12.66C36.6722 13.3787 36.9543 14.0599 37.3999 14.6308L40.0466 18.0227C41.1752 19.4691 41.1752 21.4978 40.0466 22.9442L37.3999 26.336C36.9543 26.907 36.6722 27.5881 36.5835 28.3069L36.0566 32.5768C35.8319 34.3976 34.3974 35.8321 32.5766 36.0568L28.3067 36.5837C27.588 36.6724 26.9068 36.9545 26.3358 37.4L22.944 40.0467C21.4976 41.1754 19.4689 41.1754 18.0225 40.0468L14.6307 37.4C14.0597 36.9545 13.3785 36.6724 12.6598 36.5837L8.3899 36.0568C6.56909 35.8321 5.13455 34.3976 4.90987 32.5768L4.38299 28.3069C4.2943 27.5881 4.01214 26.907 3.56662 26.336L0.91992 22.9442C-0.208714 21.4978 -0.208715 19.4691 0.919918 18.0227L3.56662 14.6308C4.01214 14.0599 4.2943 13.3787 4.38299 12.66L4.90987 8.39008C5.13455 6.56927 6.56909 5.13474 8.38989 4.91006L12.6598 4.38317C13.3785 4.29448 14.0597 4.01232 14.6307 3.56681L18.0225 0.920103Z" fill="url(#paint0_linear_1_291)"/>
<defs>
<linearGradient id="paint0_linear_1_291" x1="17.9997" y1="64.9999" x2="72.4997" y2="33.4999" gradientUnits="userSpaceOnUse">
<stop stop-color="#FAA677"/>
<stop offset="1" stop-color="#FAA677" stop-opacity="0.47"/>
</linearGradient>
</defs>
</svg>
